<svg width="17" height="15" viewBox="0 0 17 15" fill="none" xmlns="http://www.w3.org/2000/svg">
<path d="M16.6406 0L15.2734 1.40625L13.8672 0L12.5 1.40625L11.0938 0L9.72656 1.40625L8.32031 0L6.91406 1.40625L5.54688 0L4.14062 1.40625L2.77344 0L1.36719 1.40625L0 0V13.3203C0 13.7891 0.16276 14.1862 0.488281 14.5117C0.813802 14.8372 1.19792 15 1.64062 15H15C15.4427 15 15.8268 14.8372 16.1523 14.5117C16.4779 14.1862 16.6406 13.7891 16.6406 13.3203V0ZM7.5 13.3203H1.64062V8.32031H7.5V13.3203ZM15 13.3203H9.14062V11.6797H15V13.3203ZM15 10H9.14062V8.32031H15V10ZM15 6.67969H1.64062V4.17969H15V6.67969Z" fill="white"/>
</svg>
