<svg width="20" height="17" viewBox="0 0 20 17" fill="none" xmlns="http://www.w3.org/2000/svg">
<path d="M10.9688 4.5V2.53125H9V4.5H10.9688ZM10.9688 9V7.03125H9V9H10.9688ZM10.9688 13.5V11.5312H9V13.5H10.9688ZM19.9688 6C19.4375 6 18.9766 6.20312 18.5859 6.60938C18.1953 7.01562 18 7.48438 18 8.01562C18 8.54688 18.1953 9.01562 18.5859 9.42188C18.9766 9.82812 19.4375 10.0312 19.9688 10.0312V14.0156C19.9688 14.5469 19.7734 15.0156 19.3828 15.4219C18.9922 15.8281 18.5312 16.0312 18 16.0312H1.96875C1.4375 16.0312 0.976562 15.8281 0.585938 15.4219C0.195312 15.0156 0 14.5469 0 14.0156V10.0312C0.5625 10.0312 1.03125 9.83594 1.40625 9.44531C1.78125 9.05469 1.96875 8.57812 1.96875 8.01562C1.96875 7.48438 1.77344 7.01562 1.38281 6.60938C0.992188 6.20312 0.53125 6 0 6V2.01562C0 1.45312 0.195312 0.976562 0.585938 0.585938C0.976562 0.195312 1.4375 0 1.96875 0H18C18.5625 0 19.0312 0.195312 19.4062 0.585938C19.7812 0.976562 19.9688 1.45312 19.9688 2.01562V6Z" fill="#137FEC"/>
</svg>
