<svg width="19" height="13" viewBox="0 0 19 13" fill="none" xmlns="http://www.w3.org/2000/svg">
<path d="M15 1.64062C15.9115 1.64062 16.6992 1.97266 17.3633 2.63672C18.0273 3.30078 18.3594 4.08854 18.3594 5V12.5H16.6797V10H1.67969V12.5H0V0H1.67969V7.5H8.35938V1.64062H15ZM6.75781 5.89844C6.26302 6.39323 5.67708 6.64062 5 6.64062C4.32292 6.64062 3.73698 6.39323 3.24219 5.89844C2.7474 5.40365 2.5 4.81771 2.5 4.14062C2.5 3.46354 2.7474 2.8776 3.24219 2.38281C3.73698 1.88802 4.32292 1.64062 5 1.64062C5.67708 1.64062 6.26302 1.88802 6.75781 2.38281C7.2526 2.8776 7.5 3.46354 7.5 4.14062C7.5 4.81771 7.2526 5.40365 6.75781 5.89844Z" fill="white"/>
</svg>
