<svg width="15" height="17" viewBox="0 0 15 17" fill="none" xmlns="http://www.w3.org/2000/svg">
<path d="M13.3203 15V5.85938H1.67969V15H13.3203ZM10.8203 0H12.5V1.67969H13.3203C13.763 1.67969 14.1536 1.84896 14.4922 2.1875C14.8307 2.52604 15 2.91667 15 3.35938V15C15 15.4427 14.8307 15.8333 14.4922 16.1719C14.1536 16.5104 13.763 16.6797 13.3203 16.6797H1.67969C1.21094 16.6797 0.813802 16.5169 0.488281 16.1914C0.16276 15.8659 0 15.4688 0 15V3.35938C0 2.91667 0.16276 2.52604 0.488281 2.1875C0.813802 1.84896 1.21094 1.67969 1.67969 1.67969H2.5V0H4.17969V1.67969H10.8203V0ZM11.6797 9.17969V13.3594H7.5V9.17969H11.6797Z" fill="white"/>
</svg>
