<svg width="17" height="15" viewBox="0 0 17 15" fill="none" xmlns="http://www.w3.org/2000/svg">
<path d="M3.32031 3.35938C3.32031 2.73438 3.47005 2.16797 3.76953 1.66016C4.06901 1.15234 4.47266 0.748698 4.98047 0.449219C5.48828 0.14974 6.04167 0 6.64062 0C7.26562 0 7.83203 0.14974 8.33984 0.449219C8.84766 0.748698 9.2513 1.15234 9.55078 1.66016C9.85026 2.16797 10 2.73438 10 3.35938C10 3.95833 9.85026 4.51172 9.55078 5.01953C9.2513 5.52734 8.84766 5.93099 8.33984 6.23047C7.83203 6.52995 7.26562 6.67969 6.64062 6.67969C6.04167 6.67969 5.48828 6.52995 4.98047 6.23047C4.47266 5.93099 4.06901 5.52734 3.76953 5.01953C3.47005 4.51172 3.32031 3.95833 3.32031 3.35938ZM7.22656 7.53906C7.1224 7.53906 7.02474 7.53255 6.93359 7.51953C6.84245 7.50651 6.74479 7.5 6.64062 7.5C5.65104 7.5 4.6875 7.63672 3.75 7.91016C2.8125 8.18359 1.9401 8.55469 1.13281 9.02344C0.768229 9.23177 0.488281 9.53125 0.292969 9.92188C0.0976562 10.3125 0 10.7161 0 11.1328V13.3594H7.69531C7.38281 12.8906 7.12891 12.3698 6.93359 11.7969C6.73828 11.224 6.64062 10.625 6.64062 10C6.64062 9.55729 6.69271 9.1276 6.79688 8.71094C6.90104 8.29427 7.04427 7.90365 7.22656 7.53906ZM15.625 10C15.625 9.92188 15.6185 9.83724 15.6055 9.74609C15.5924 9.65495 15.5729 9.57031 15.5469 9.49219L16.5234 8.63281L15.6641 7.1875L14.4531 7.61719C14.1927 7.38281 13.8932 7.20052 13.5547 7.07031L13.3203 5.85938H11.6406L11.4062 7.07031C11.0677 7.20052 10.7682 7.38281 10.5078 7.61719L9.29688 7.1875L8.47656 8.63281L9.41406 9.49219C9.38802 9.57031 9.375 9.65495 9.375 9.74609C9.375 9.83724 9.375 9.92188 9.375 10C9.375 10.1042 9.375 10.1953 9.375 10.2734C9.375 10.3516 9.38802 10.4427 9.41406 10.5469L8.47656 11.3672L9.29688 12.8125L10.5078 12.4219C10.7682 12.6302 11.0677 12.7995 11.4062 12.9297L11.6406 14.1797H13.3203L13.5547 12.9297C13.8932 12.7995 14.1927 12.6302 14.4531 12.4219L15.6641 12.8125L16.5234 11.3672L15.5469 10.5469C15.5729 10.4427 15.5924 10.3516 15.6055 10.2734C15.6185 10.1953 15.625 10.1042 15.625 10ZM12.5 11.6797C12.0312 11.6797 11.6341 11.5169 11.3086 11.1914C10.9831 10.8659 10.8203 10.4688 10.8203 10C10.8203 9.55729 10.9831 9.17318 11.3086 8.84766C11.6341 8.52214 12.0312 8.35938 12.5 8.35938C12.9427 8.35938 13.3268 8.52214 13.6523 8.84766C13.9779 9.17318 14.1406 9.55729 14.1406 10C14.1406 10.4688 13.9779 10.8659 13.6523 11.1914C13.3268 11.5169 12.9427 11.6797 12.5 11.6797Z" fill="#94A3B8"/>
</svg>
