<svg width="23" height="15" viewBox="0 0 23 15" fill="none" xmlns="http://www.w3.org/2000/svg">
<path d="M18 1.96875C19.0938 1.96875 20.0391 2.36719 20.8359 3.16406C21.6328 3.96094 22.0312 4.90625 22.0312 6V15H20.0156V12H2.01562V15H0V0H2.01562V9H10.0312V1.96875H18ZM8.10938 7.07812C7.51562 7.67188 6.8125 7.96875 6 7.96875C5.1875 7.96875 4.48438 7.67188 3.89062 7.07812C3.29688 6.48438 3 5.78125 3 4.96875C3 4.15625 3.29688 3.45312 3.89062 2.85938C4.48438 2.26562 5.1875 1.96875 6 1.96875C6.8125 1.96875 7.51562 2.26562 8.10938 2.85938C8.70312 3.45312 9 4.15625 9 4.96875C9 5.78125 8.70312 6.48438 8.10938 7.07812Z" fill="#2563EB"/>
</svg>
