<svg width="18" height="18" viewBox="0 0 18 18" fill="none" xmlns="http://www.w3.org/2000/svg">
<path d="M15.9844 0H2.01562C1.45312 0 0.976562 0.195312 0.585938 0.585938C0.195312 0.976562 0 1.45312 0 2.01562V15.9844C0 16.5469 0.195312 17.0234 0.585938 17.4141C0.976562 17.8047 1.45312 18 2.01562 18H15.9844C16.5469 18 17.0234 17.8047 17.4141 17.4141C17.8047 17.0234 18 16.5469 18 15.9844V2.01562C18 1.45312 17.8047 0.976562 17.4141 0.585938C17.0234 0.195312 16.5469 0 15.9844 0ZM11.0156 14.0156H3.98438V12H11.0156V14.0156ZM14.0156 9.98438H3.98438V8.01562H14.0156V9.98438ZM14.0156 6H3.98438V3.98438H14.0156V6Z" fill="#137FEC"/>
</svg>
