<svg width="20" height="14" viewBox="0 0 20 14" fill="none" xmlns="http://www.w3.org/2000/svg">
<path d="M18.9844 5.76562V3C18.9844 2.4375 18.8516 1.92969 18.5859 1.47656C18.3203 1.02344 17.9609 0.664062 17.5078 0.398438C17.0547 0.132812 16.5469 0 15.9844 0H12C11.5938 0 11.2188 0.0703125 10.875 0.210938C10.5312 0.351562 10.2344 0.53125 9.98438 0.75C9.73438 0.53125 9.4375 0.351562 9.09375 0.210938C8.75 0.0703125 8.375 0 7.96875 0H3.98438C3.42188 0 2.91406 0.132812 2.46094 0.398438C2.00781 0.664062 1.64844 1.02344 1.38281 1.47656C1.11719 1.92969 0.984375 2.4375 0.984375 3V5.76562C0.671875 6.04688 0.429688 6.375 0.257812 6.75C0.0859375 7.125 0 7.53125 0 7.96875V13.9688H1.96875V12H18V13.9688H19.9688V7.96875C19.9688 7.53125 19.8828 7.125 19.7109 6.75C19.5391 6.375 19.2969 6.04688 18.9844 5.76562ZM12 1.96875H15.9844C16.2656 1.96875 16.5 2.07031 16.6875 2.27344C16.875 2.47656 16.9688 2.71875 16.9688 3V4.96875H10.9688V3C10.9688 2.71875 11.0703 2.47656 11.2734 2.27344C11.4766 2.07031 11.7188 1.96875 12 1.96875ZM3 3C3 2.71875 3.09375 2.47656 3.28125 2.27344C3.46875 2.07031 3.70312 1.96875 3.98438 1.96875H7.96875C8.25 1.96875 8.49219 2.07031 8.69531 2.27344C8.89844 2.47656 9 2.71875 9 3V4.96875H3V3ZM1.96875 9.98438V7.96875C1.96875 7.71875 2.07031 7.49219 2.27344 7.28906C2.47656 7.08594 2.71875 6.98438 3 6.98438H16.9688C17.25 6.98438 17.4922 7.08594 17.6953 7.28906C17.8984 7.49219 18 7.71875 18 7.96875V9.98438H1.96875Z" fill="#137FEC"/>
</svg>
